{
  "accessors": [
    {
      "bufferView": 2,
      "componentType": 5126,
      "count": 618,
      "max": [
        2.023674964904785,
        1.9481924772262573,
        2.020200729370117
      ],
      "min": [
        -1.8874317407608032,
        -1.928831696510315,
        -1.976090431213379
      ],
      "type": "VEC3"
    },
    {
      "bufferView": 2,
      "byteOffset": 7416,
      "componentType": 5126,
      "count": 618,
      "max": [
        0.995130181312561,
        0.9876708984375,
        0.9906196594238281
      ],
      "min": [
        -0.9965624213218689,
        -0.9990443587303162,
        -0.9979822635650635
      ],
      "type": "VEC3"
    },
    {
      "bufferView": 3,
      "componentType": 5126,
      "count": 618,
      "max": [
        0.9979559779167175,
        0.9989543557167053,
        0.9986238479614258,
        1.0
      ],
      "min": [
        -0.9999217391014099,
        -0.9627268314361572,
        -0.9871729612350464,
        -1.0
      ],
      "type": "VEC4"
    },
    {
      "bufferView": 1,
      "componentType": 5126,
      "count": 618,
      "max": [
        0.9812015891075134,
        0.9772432446479797
      ],
      "min": [
        0.012833806686103344,
        0.02002829685807228
      ],
      "type": "VEC2"
    },
    {
      "bufferView": 0,
      "componentType": 5125,
      "count": 1800,
      "type": "SCALAR"
    }
  ],
  "asset": {
    "extras": {
      "author": "exabyte (https://sketchfab.com/Oziry)",
      "license": "CC-BY-4.0 (http://creativecommons.org/licenses/by/4.0/)",
      "source": "https://sketchfab.com/3d-models/asteroid-01-df95d3da67aa4c769ec81394e0b0ffef",
      "title": "Asteroid 01"
    },
    "generator": "Sketchfab-12.67.0",
    "version": "2.0"
  },
  "bufferViews": [
    {
      "buffer": 0,
      "byteLength": 7200,
      "name": "floatBufferViews",
      "target": 34963
    },
    {
      "buffer": 0,
      "byteLength": 4944,
      "byteOffset": 7200,
      "byteStride": 8,
      "name": "floatBufferViews",
      "target": 34962
    },
    {
      "buffer": 0,
      "byteLength": 14832,
      "byteOffset": 12144,
      "byteStride": 12,
      "name": "floatBufferViews",
      "target": 34962
    },
    {
      "buffer": 0,
      "byteLength": 9888,
      "byteOffset": 26976,
      "byteStride": 16,
      "name": "floatBufferViews",
      "target": 34962
    }
  ],
  "buffers": [
    {
      "byteLength": 36864,
      "uri": "Asteroid.bin"
    }
  ],
  "images": [
    {
      "uri": "textures/Asteroid_01_baseColor.png"
    },
    {
      "uri": "textures/Asteroid_01_metallicRoughness.png"
    },
    {
      "uri": "textures/Asteroid_01_normal.png"
    }
  ],
  "materials": [
    {
      "doubleSided": true,
      "name": "Asteroid_01",
      "normalTexture": {
        "index": 2
      },
      "occlusionTexture": {
        "index": 1
      },
      "pbrMetallicRoughness": {
        "baseColorTexture": {
          "index": 0
        },
        "metallicFactor": 0.1236661585,
        "metallicRoughnessTexture": {
          "index": 1
        },
        "roughnessFactor": 0.8275533536999999
      }
    }
  ],
  "meshes": [
    {
      "name": "Asteroid Mob 01_Asteroid 01_0",
      "primitives": [
        {
          "attributes": {
            "NORMAL": 1,
            "POSITION": 0,
            "TANGENT": 2,
            "TEXCOORD_0": 3
          },
          "indices": 4,
          "material": 0,
          "mode": 4
        }
      ]
    }
  ],
  "nodes": [
    {
      "children": [
        1
      ],
      "matrix": [
        0.5908610224723816,
        0.0,
        0.0,
        0.0,
        0.0,
        1.3119750230048002e-16,
        -0.5908610224723816,
        0.0,
        0.0,
        0.5908610224723816,
        1.3119750230048002e-16,
        0.0,
        0.0,
        0.0,
        0.0,
        1.0
      ],
      "name": "Sketchfab_model"
    },
    {
      "children": [
        2
      ],
      "matrix": [
        1.0,
        0.0,
        0.0,
        0.0,
        0.0,
        0.0,
        1.0,
        0.0,
        0.0,
        -1.0,
        0.0,
        0.0,
        0.0,
        0.0,
        0.0,
        1.0
      ],
      "name": "b24b7adb952a4cfa94918b012da431c0.fbx"
    },
    {
      "children": [
        3
      ],
      "name": "RootNode"
    },
    {
      "children": [
        4
      ],
      "matrix": [
        100.0,
        0.0,
        0.0,
        0.0,
        0.0,
        -1.629206793918314e-05,
        -99.99999999999868,
        0.0,
        0.0,
        99.99999999999868,
        -1.629206793918314e-05,
        0.0,
        0.0,
        0.0,
        0.0,
        1.0
      ],
      "name": "Asteroid Mob 01"
    },
    {
      "mesh": 0,
      "name": "Asteroid Mob 01_Asteroid 01_0"
    }
  ],
  "samplers": [
    {
      "magFilter": 9729,
      "minFilter": 9987,
      "wrapS": 10497,
      "wrapT": 10497
    }
  ],
  "scene": 0,
  "scenes": [
    {
      "name": "Sketchfab_Scene",
      "nodes": [
        0
      ]
    }
  ],
  "textures": [
    {
      "sampler": 0,
      "source": 0
    },
    {
      "sampler": 0,
      "source": 1
    },
    {
      "sampler": 0,
      "source": 2
    }
  ]
}
